<svg version="1.1" baseProfile="full" width="500" height="500" xmlns="http://www.w3.org/2000/svg"><circle cx="128" cy="296" r="0.5" fill="white"/><circle cx="58" cy="430" r="0.5" fill="white"/><circle cx="88" cy="411" r="0.5" fill="white"/><circle cx="34" cy="218" r="0.5" fill="white"/><circle cx="217" cy="281" r="0.5" fill="white"/><circle cx="83" cy="343" r="0.5" fill="white"/><circle cx="271" cy="181" r="0.5" fill="white"/><circle cx="432" cy="284" r="0.5" fill="white"/><circle cx="98" cy="180" r="0.5" fill="white"/><circle cx="248" cy="28" r="0.5" fill="white"/><circle cx="363" cy="405" r="0.5" fill="white"/><circle cx="88" cy="458" r="0.5" fill="white"/><circle cx="12" cy="11" r="0.5" fill="white"/><circle cx="120" cy="233" r="0.5" fill="white"/><circle cx="463" cy="27" r="0.5" fill="white"/><circle cx="172" cy="269" r="0.5" fill="white"/><circle cx="133" cy="450" r="0.5" fill="white"/><circle cx="310" cy="130" r="0.5" fill="white"/><circle cx="68" cy="62" r="0.5" fill="white"/><circle cx="288" cy="56" r="0.5" fill="white"/><circle cx="33" cy="225" r="0.5" fill="white"/><circle cx="336" cy="412" r="0.5" fill="white"/><circle cx="154" cy="221" r="0.5" fill="white"/><circle cx="188" cy="265" r="0.5" fill="white"/><circle cx="328" cy="483" r="0.5" fill="white"/><circle cx="290" cy="425" r="0.5" fill="white"/><circle cx="56" cy="484" r="0.5" fill="white"/><circle cx="322" cy="174" r="0.5" fill="white"/><circle cx="130" cy="456" r="0.5" fill="white"/><circle cx="100" cy="277" r="0.5" fill="white"/><circle cx="413" cy="4" r="0.5" fill="white"/><circle cx="185" cy="420" r="0.5" fill="white"/><circle cx="293" cy="455" r="0.5" fill="white"/><circle cx="338" cy="416" r="0.5" fill="white"/><circle cx="199" cy="311" r="0.5" fill="white"/><circle cx="3" cy="464" r="0.5" fill="white"/><circle cx="212" cy="463" r="0.5" fill="white"/><circle cx="158" cy="58" r="0.5" fill="white"/><circle cx="290" cy="318" r="0.5" fill="white"/><circle cx="247" cy="411" r="0.5" fill="white"/><circle cx="359" cy="324" r="0.5" fill="white"/><circle cx="10" cy="465" r="0.5" fill="white"/><circle cx="212" cy="404" r="0.5" fill="white"/><circle cx="190" cy="32" r="0.5" fill="white"/><circle cx="71" cy="289" r="0.5" fill="white"/><circle cx="102" cy="237" r="0.5" fill="white"/><circle cx="166" cy="340" r="0.5" fill="white"/><circle cx="320" cy="11" r="0.5" fill="white"/><circle cx="320" cy="330" r="0.5" fill="white"/><circle cx="216" cy="342" r="0.5" fill="white"/><circle cx="175" cy="16" r="0.5" fill="white"/><circle cx="50" cy="152" r="0.5" fill="white"/><circle cx="118" cy="468" r="0.5" fill="white"/><circle cx="188" cy="229" r="0.5" fill="white"/><circle cx="68" cy="250" r="0.5" fill="white"/><circle cx="56" cy="293" r="0.5" fill="white"/><circle cx="162" cy="20" r="0.5" fill="white"/><circle cx="221" cy="291" r="0.5" fill="white"/><circle cx="451" cy="414" r="0.5" fill="white"/><circle cx="69" cy="239" r="0.5" fill="white"/><circle cx="348" cy="72" r="0.5" fill="white"/><circle cx="440" cy="61" r="0.5" fill="white"/><circle cx="157" cy="287" r="0.5" fill="white"/><circle cx="317" cy="276" r="0.5" fill="white"/><circle cx="371" cy="453" r="0.5" fill="white"/><circle cx="7" cy="124" r="0.5" fill="white"/><circle cx="280" cy="497" r="0.5" fill="white"/><circle cx="65" cy="142" r="0.5" fill="white"/><circle cx="0" cy="62" r="0.5" fill="white"/><circle cx="334" cy="276" r="0.5" fill="white"/><circle cx="174" cy="467" r="0.5" fill="white"/><circle cx="309" cy="28" r="0.5" fill="white"/><circle cx="38" cy="241" r="0.5" fill="white"/><circle cx="65" cy="296" r="0.5" fill="white"/><circle cx="446" cy="219" r="0.5" fill="white"/><circle cx="120" cy="419" r="0.5" fill="white"/><circle cx="396" cy="349" r="0.5" fill="white"/><circle cx="440" cy="202" r="0.5" fill="white"/><circle cx="420" cy="207" r="0.5" fill="white"/><circle cx="200" cy="117" r="0.5" fill="white"/><circle cx="3" cy="440" r="0.5" fill="white"/><circle cx="154" cy="401" r="0.5" fill="white"/><circle cx="53" cy="26" r="0.5" fill="white"/><circle cx="429" cy="382" r="0.5" fill="white"/><circle cx="455" cy="31" r="0.5" fill="white"/><circle cx="380" cy="368" r="0.5" fill="white"/><circle cx="123" cy="2" r="0.5" fill="white"/><circle cx="334" cy="316" r="0.5" fill="white"/><circle cx="29" cy="441" r="0.5" fill="white"/><circle cx="85" cy="2" r="0.5" fill="white"/><circle cx="325" cy="288" r="0.5" fill="white"/><circle cx="31" cy="13" r="0.5" fill="white"/><circle cx="5" cy="316" r="0.5" fill="white"/><circle cx="65" cy="119" r="0.5" fill="white"/><circle cx="384" cy="69" r="0.5" fill="white"/><circle cx="62" cy="332" r="0.5" fill="white"/><circle cx="3" cy="215" r="0.5" fill="white"/><circle cx="222" cy="157" r="0.5" fill="white"/><circle cx="374" cy="55" r="0.5" fill="white"/><circle cx="444" cy="24" r="0.5" fill="white"/><circle cx="374" cy="127" r="1" fill="white"/><circle cx="198" cy="467" r="1" fill="white"/><circle cx="28" cy="442" r="1" fill="white"/><circle cx="481" cy="200" r="1" fill="white"/><circle cx="451" cy="241" r="1" fill="white"/><circle cx="462" cy="288" r="1" fill="white"/><circle cx="233" cy="84" r="1" fill="white"/><circle cx="325" cy="190" r="1" fill="white"/><circle cx="271" cy="102" r="1" fill="white"/><circle cx="222" cy="218" r="1" fill="white"/><circle cx="406" cy="205" r="1" fill="white"/><circle cx="471" cy="36" r="1" fill="white"/><circle cx="336" cy="268" r="1" fill="white"/><circle cx="9" cy="77" r="1" fill="white"/><circle cx="207" cy="21" r="1" fill="white"/><circle cx="286" cy="324" r="1" fill="white"/><circle cx="268" cy="1" r="1" fill="white"/><circle cx="490" cy="271" r="1" fill="white"/><circle cx="391" cy="308" r="1" fill="white"/><circle cx="248" cy="388" r="1" fill="white"/><circle cx="281" cy="314" r="1" fill="white"/><circle cx="408" cy="395" r="1" fill="white"/><circle cx="140" cy="182" r="1" fill="white"/><circle cx="155" cy="295" r="1" fill="white"/><circle cx="44" cy="60" r="1" fill="white"/><circle cx="323" cy="176" r="1" fill="white"/><circle cx="62" cy="346" r="1" fill="white"/><circle cx="437" cy="24" r="1" fill="white"/><circle cx="416" cy="323" r="1" fill="white"/><circle cx="336" cy="328" r="1" fill="white"/><circle cx="96" cy="88" r="1" fill="white"/><circle cx="138" cy="173" r="1" fill="white"/><circle cx="57" cy="262" r="1" fill="white"/><circle cx="238" cy="182" r="1" fill="white"/><circle cx="47" cy="30" r="1" fill="white"/><circle cx="236" cy="236" r="1" fill="white"/><circle cx="187" cy="410" r="1" fill="white"/><circle cx="69" cy="496" r="1" fill="white"/><circle cx="109" cy="401" r="1" fill="white"/><circle cx="497" cy="142" r="1" fill="white"/><circle cx="298" cy="45" r="1" fill="white"/><circle cx="167" cy="498" r="1" fill="white"/><circle cx="464" cy="252" r="1" fill="white"/><circle cx="5" cy="404" r="1" fill="white"/><circle cx="421" cy="177" r="1" fill="white"/><circle cx="189" cy="496" r="1" fill="white"/><circle cx="292" cy="27" r="1" fill="white"/><circle cx="423" cy="109" r="1" fill="white"/><circle cx="239" cy="222" r="1" fill="white"/><circle cx="61" cy="1" r="1" fill="white"/><circle cx="269" cy="362" r="1.5" fill="white"/><circle cx="109" cy="33" r="1.5" fill="white"/><circle cx="308" cy="172" r="1.5" fill="white"/><circle cx="312" cy="124" r="1.5" fill="white"/><circle cx="304" cy="123" r="1.5" fill="white"/><circle cx="417" cy="317" r="1.5" fill="white"/><circle cx="497" cy="281" r="1.5" fill="white"/><circle cx="293" cy="365" r="1.5" fill="white"/><circle cx="446" cy="111" r="1.5" fill="white"/><circle cx="297" cy="241" r="1.5" fill="white"/><circle cx="304" cy="122" r="1.5" fill="white"/><circle cx="335" cy="199" r="1.5" fill="white"/><circle cx="154" cy="238" r="1.5" fill="white"/><circle cx="455" cy="301" r="1.5" fill="white"/><circle cx="437" cy="500" r="1.5" fill="white"/><circle cx="33" cy="153" r="1.5" fill="white"/><circle cx="233" cy="160" r="1.5" fill="white"/><circle cx="307" cy="435" r="1.5" fill="white"/><circle cx="312" cy="480" r="1.5" fill="white"/><circle cx="401" cy="485" r="1.5" fill="white"/><circle cx="19" cy="181" r="1.5" fill="white"/><circle cx="435" cy="493" r="1.5" fill="white"/><circle cx="164" cy="456" r="1.5" fill="white"/><circle cx="227" cy="453" r="1.5" fill="white"/><circle cx="367" cy="383" r="1.5" fill="white"/></svg>